<?xml version="1.0" encoding="UTF-8" standalone="no"?>
<svg viewBox="0 0 238 238" version="1.1" xmlns="http://www.w3.org/2000/svg">
    <title>We Love Icons Logo</title>
    <g stroke="none" stroke-width="1" fill="none" fill-rule="evenodd">
        <path d="M48,24 C50,23.38 96.62,9.75 119,65 C96.243,66.861 94.41,68.12 85,72 C79.85,65.13 48.25,24 48,24" fill="#70DBFF"></path>
        <path d="M66,184 C69.333,179.333 92,152 92,152 C94.07,154.11 109.47,171.82 119,183 C114.11,189.29 101.417,207.167 99,212 C95.5,209.12 66,184 66,184" fill="#0160A1"></path>
        <path d="M47,110 C47,110 70.5,128.62 92,152 C86.5,158.75 65.95,184.04 66,184 C62,180 35.75,156 33,152 C32.36,140.89 42.33,117.84 47,110"  fill="#007FC9"></path>
        <path d="M3,80 C7.78,82.18 39.49,102.13 47,110 C43.6,115.99 33.333,136.667 33,152 C24.88,142.12 2.12,112.5 3,80" fill="#009CEE"></path>
        <path d="M48,24 C49.89,26.01 81.44,67.16 85,72 C73.5,80.25 60,87.25 47,110 C38.53,102.22 13.47,85.47 3,80 C5,67.25 8.12,35.75 48,24" fill="#00BFFF"></path>
        <path d="M85,72 C84.917,71.583 119,116 119,116 C114,122.5 92.88,150.38 92,152 C84.75,144 55.583,116.917 47,110 C53,98.75 62,86 85,72" fill="#009CEE"></path>
        <path d="M190.01,23.952 C188.01,23.332 141.39,9.702 119.01,64.952 C141.331,66.861 143.6,68.072 153.01,71.952 C158.16,65.082 189.76,23.952 190.01,23.952" fill="#70DBFF"></path>
        <path d="M119,227 L119,183 C119,183 103.55,203.18 99,212 C107,218.25 119,227 119,227 Z M119.01,182.952 L119.01,226.952 C119.01,226.952 131.01,218.202 139.01,211.952 C134.46,203.132 119.01,182.952 119.01,182.952 Z" fill="#02336D"></path>
        <path d="M172.01,183.952 C168.677,179.286 146.01,151.952 146.01,151.952 C143.94,154.062 128.54,171.772 119.01,182.952 C123.9,189.242 136.593,207.119 139.01,211.952 C142.51,209.072 172.01,183.952 172.01,183.952" fill="#0160A1"></path>
        <path d="M191.01,109.952 C191.01,109.952 167.51,128.572 146.01,151.952 C151.51,158.702 172.06,183.992 172.01,183.952 C176.01,179.952 202.26,155.952 205.01,151.952 C205.65,140.842 195.68,117.792 191.01,109.952" fill="#007FC9"></path>
        <path d="M235.01,79.952 C230.23,82.132 198.52,102.082 191.01,109.952 C194.41,115.942 204.676,136.619 205.01,151.952 C213.13,142.072 235.89,112.452 235.01,79.952" fill="#009CEE"></path>
        <path d="M190.01,23.952 C188.12,25.962 156.57,67.112 153.01,71.952 C164.51,80.202 178.01,87.202 191.01,109.952 C199.48,102.172 224.54,85.422 235.01,79.952 C233.01,67.202 229.89,35.702 190.01,23.952" fill="#00BFFF"></path>
        <path d="M85,72 C85.38,72.38 119,116 119,116 L119,65 C104.387,65 90.86,69 85,72 Z M119.01,64.952 L119.01,115.952 C119.01,115.952 152.63,72.332 153.01,71.952 C147.15,68.952 133.54,64.952 119.01,64.952 Z" fill="#00BFFF"></path>
        <path d="M153.01,71.952 C153.093,71.536 119.01,115.952 119.01,115.952 C124.01,122.452 145.13,150.332 146.01,151.952 C153.26,143.952 182.426,116.869 191.01,109.952 C185.01,98.702 176.01,85.952 153.01,71.952" fill="#009CEE"></path>
        <path d="M119,183 L119,116 C119,116 99.333,141.333 92,152 C96.5,156.75 119,183 119,183 Z M119.01,115.952 L119.01,182.952 C119.01,182.952 141.51,156.702 146.01,151.952 C138.677,141.286 119.01,115.952 119.01,115.952 Z" fill="#007FC9"></path>
    </g>
</svg>
